<svg xmlns="http://www.w3.org/2000/svg" version="1.1" xmlns:xlink="http://www.w3.org/1999/xlink" xmlns:svgjs="http://svgjs.dev/svgjs" width="1000" height="750" viewBox="0 0 1000 750"><rect width="1000" height="750" fill="#fc594a"></rect><g transform="matrix(0.6361655773420479,0,0,0.6361655773420479,181.55733101207,83.23643724696356)"><svg viewBox="0 0 269 247" data-background-color="#fc594a" preserveAspectRatio="xMidYMid meet" height="918" width="1000" xmlns="http://www.w3.org/2000/svg" xmlns:xlink="http://www.w3.org/1999/xlink"><g id="tight-bounds" transform="matrix(1,0,0,1,0.15217391304349803,-0.09999999999999432)"><svg viewBox="0 0 268.695652173913 247.2" height="247.2" width="268.695652173913"><g><svg viewBox="0 0 268.695652173913 247.2" height="247.2" width="268.695652173913"><g><svg viewBox="0 0 268.695652173913 247.2" height="247.2" width="268.695652173913"><g id="textblocktransform"><svg viewBox="0 0 268.695652173913 247.2" height="247.2" width="268.695652173913" id="textblock"><g><svg viewBox="0 0 268.695652173913 247.2" height="247.2" width="268.695652173913"><g transform="matrix(1,0,0,1,0,0)"><svg width="268.695652173913" viewBox="0 -38.05 56.25 51.74999999999999" height="247.2" data-palette-color="#f7e1e1"><g class="wordmark-text-0" data-fill-palette-color="primary" id="text-0"><path d="M7.15-24.1L7.15-24.1Q10.4-24.1 10.95-22.45L10.95-22.45Q13.3-24.1 16.9-24.1 20.5-24.1 23.1-21.15 25.7-18.2 25.7-14.25L25.7-14.25Q25.7-13.7 25.65-13.1L25.65-13.1Q25.1-6.55 21.25-3.13 17.4 0.3 11.2 0.3L11.2 0.3Q9.8 0.3 8.15-0.05L8.15-0.05 6.55 13.7 0 13.7Q3.2-13.85 4.3-23.7L4.3-23.7Q5.35-24.1 7.15-24.1ZM18.65-13.9L18.65-13.9Q18.65-16.1 17.65-17.8 16.65-19.5 14.55-19.5L14.55-19.5Q11.7-19.5 10.2-15.8L10.2-15.8Q9.2-8.4 9.05-7.2L9.05-7.2Q9-5.7 10-4.95 11-4.2 12.45-4.2L12.45-4.2Q15-4.2 16.65-6.5L16.65-6.5Q18.65-9.35 18.65-13.9ZM50.75-18L50.75-18Q50.75-12.8 44.55-10.05L44.55-10.05Q44.7-9.15 45-7.9L45-7.9Q45.9-4.2 48-4.1L48-4.1Q48.15-4.1 48.3-4.1L48.3-4.1Q52.3-4.1 54.25-11.15L54.25-11.15Q55.3-10.2 56.25-8.3L56.25-8.3Q55.55-5.6 54.27-3.75 53-1.9 51.5-1.1L51.5-1.1Q48.85 0.3 46.5 0.3L46.5 0.3Q41 0.3 38.8-5.85L38.8-5.85Q37.95-8.3 37.65-10.85L37.65-10.85Q40.5-11.55 42.15-13.18 43.8-14.8 43.8-16.65L43.8-16.65Q43.8-19.85 40.6-19.85L40.6-19.85Q38.85-19.85 37.6-18.53 36.35-17.2 35.95-15.35L35.95-15.35Q35.65-12.8 34.97-7.33 34.3-1.85 34.1 0L34.1 0 27.45 0Q31.05-30.65 31.8-37.65L31.8-37.65Q32.85-38.05 34.65-38.05L34.65-38.05Q38.55-38.05 38.55-35.75L38.55-35.75 38.55-35.45Q37.55-26.4 36.7-21.6L36.7-21.6Q39.45-24.15 43.6-24.15L43.6-24.15Q46.7-24.15 48.72-22.55 50.75-20.95 50.75-18Z" fill="#f7e1e1" data-fill-palette-color="primary"></path></g></svg></g></svg></g></svg></g></svg></g></svg></g><defs></defs></svg><rect width="268.695652173913" height="247.2" fill="none" stroke="none" visibility="hidden"></rect></g></svg></g></svg>